<?xml version="1.0" encoding="UTF-8"?>
<svg version="1.1" xmlns="http://www.w3.org/2000/svg" width="1024" height="1024">
<path d="M0 0 C337.92 0 675.84 0 1024 0 C1024 337.92 1024 675.84 1024 1024 C686.08 1024 348.16 1024 0 1024 C0 686.08 0 348.16 0 0 Z " fill="#FDFDFD" transform="translate(0,0)"/>
<path d="M0 0 C2.56743108 -0.05634722 5.134839 -0.11375761 7.70222473 -0.1721344 C31.0030397 -0.68309337 54.31152707 -0.93371386 77.61684895 -1.13243008 C80.72731767 -1.15942991 83.8377818 -1.18689907 86.94824219 -1.21484375 C88.10736813 -1.22522204 88.10736813 -1.22522204 89.28991076 -1.23580999 C101.78718195 -1.35154839 114.27804549 -1.60270935 126.77198467 -1.90736841 C139.69220843 -2.21974251 152.60914023 -2.39525586 165.53306645 -2.44625717 C172.75506028 -2.47828909 179.96557775 -2.56777716 187.18374062 -2.81329155 C235.97671763 -4.42075647 235.97671763 -4.42075647 253.2161507 11.08265704 C259.88462559 17.53110011 265.76479341 24.59428794 271.25598431 32.05842495 C274.00181148 35.69505583 277.10838635 38.58489932 280.60266107 41.49644488 C283.21576965 43.68066516 285.56942655 46.05419455 287.97094727 48.4699707 C288.71402885 49.21524269 288.71402885 49.21524269 289.47212219 49.97557068 C290.5300633 51.03727133 291.58684992 52.10012349 292.64254379 53.16405869 C294.31314572 54.84758153 295.98698979 56.5278221 297.66165161 58.20730591 C301.20656117 61.76354992 304.74747624 65.32375451 308.2878418 68.88452148 C312.4138429 73.03414499 316.54147646 77.18211791 320.67331314 81.32593155 C322.32282823 82.98193048 323.96930761 84.6409078 325.61569214 86.30001831 C326.62068222 87.30863856 327.62581164 88.31712 328.63110352 89.32543945 C329.50854218 90.20811493 330.38598083 91.09079041 331.29000854 92.00021362 C333.2477725 94.04784285 333.2477725 94.04784285 335.4128418 95.00952148 C335.4128418 95.66952148 335.4128418 96.32952148 335.4128418 97.00952148 C336.4028418 97.33952148 337.3928418 97.66952148 338.4128418 98.00952148 C340.12396195 99.63051605 341.78593731 101.3040194 343.4128418 103.00952148 C344.17867081 103.77757111 344.94449982 104.54562073 345.73353577 105.33694458 C346.52755295 106.13397797 347.32157013 106.93101135 348.13964844 107.75219727 C352.62751429 112.25602212 357.11755208 116.75767036 361.60921574 121.2577076 C364.31827577 123.97200223 367.02638425 126.68723289 369.73242188 129.40454102 C372.36196819 132.04496302 374.99395972 134.68292479 377.62765312 137.31921005 C378.62723611 138.3206353 379.62594111 139.32293774 380.62373543 140.32614517 C382.01862437 141.72830926 383.41695683 143.12704513 384.81542969 144.52563477 C385.60865128 145.32107697 386.40187286 146.11651917 387.21913147 146.93606567 C389.34726004 149.03782216 389.34726004 149.03782216 391.70018005 150.6647644 C392.26535843 151.10853424 392.8305368 151.55230408 393.4128418 152.00952148 C393.4128418 152.66952148 393.4128418 153.32952148 393.4128418 154.00952148 C393.98089539 154.25193069 394.54894897 154.4943399 395.13421631 154.74409485 C397.85307891 156.25400561 399.68157552 158.04577114 401.87084961 160.25634766 C402.74565979 161.13453659 403.62046997 162.01272552 404.52178955 162.91752625 C405.46987407 163.87915583 406.41793249 164.84081115 407.3659668 165.80249023 C408.34948208 166.79228433 409.33351991 167.78155945 410.3180542 168.77033997 C412.91013877 171.3757172 415.49660777 173.98659214 418.08148193 176.59912109 C422.20255394 180.76329822 426.33020436 184.92092363 430.46138763 189.07506752 C431.89277178 190.51654355 433.32061339 191.96145749 434.74810791 193.40678406 C435.63552673 194.3007338 436.52294556 195.19468353 437.43725586 196.11572266 C438.20684631 196.89356613 438.97643677 197.67140961 439.76934814 198.4728241 C444.95274387 203.44681236 450.07205819 207.81207803 456.14266968 211.68228149 C465.24447132 218.14940692 472.55519241 225.30891414 474.70954132 236.62023163 C476.82742906 251.86292603 476.23452771 267.43789616 475.88950322 282.7851313 C475.73443113 289.87524024 475.71129899 296.96417132 475.6934412 304.05573185 C475.65791645 316.7189594 475.51810763 329.37875741 475.31274414 342.0402832 C475.11440446 354.28049105 474.97281579 366.51935029 474.90258789 378.76098633 C474.89824146 379.51597669 474.89389503 380.27096706 474.88941689 381.04883592 C474.87212233 384.08515633 474.85510922 387.12147814 474.8384966 390.15780237 C474.76179203 404.01224856 474.64526708 417.86642735 474.5144043 431.72045898 C474.50456547 432.76751295 474.50456547 432.76751295 474.49452788 433.83571953 C474.4113489 442.57618129 474.30753141 451.31601396 474.1729126 460.05586624 C474.1372461 462.48041695 474.10609476 464.90503932 474.07999802 467.32971191 C473.9327363 480.54842243 473.27630382 493.0757878 470.4128418 506.00952148 C470.20436426 506.99791204 469.99588673 507.9863026 469.78109169 509.00464439 C462.59515398 542.50110616 447.40046923 571.43667903 418.4128418 591.00952148 C413.86042469 593.89574603 409.17094218 596.48010243 404.4128418 599.00952148 C403.45635742 599.54448242 402.49987305 600.07944336 401.5144043 600.63061523 C394.380508 604.31231774 387.05638458 606.34044874 379.2878418 608.25952148 C378.30581787 608.50589355 377.32379395 608.75226562 376.31201172 609.00610352 C355.81812847 613.78179384 334.94094197 613.312233 314.039536 613.30028892 C309.52672663 613.29987651 305.01394192 613.31095972 300.50114441 613.32040405 C291.683447 613.33692337 282.86577635 613.34250944 274.04806475 613.34362881 C266.87195557 613.34458348 259.69585511 613.34871454 252.51974869 613.35503006 C232.11774255 613.37261663 211.71575735 613.38187282 191.31374358 613.38036911 C190.21690497 613.3802892 189.12006637 613.38020929 187.98999023 613.38012695 C186.3426947 613.38000431 186.3426947 613.38000431 184.66212048 613.37987919 C166.87460051 613.37906672 149.08716531 613.39820149 131.29966985 613.42640369 C112.98031058 613.45521713 94.66099255 613.46893939 76.34161007 613.46721613 C66.07884771 613.46655522 55.81617425 613.47191598 45.55343246 613.49357224 C36.81501336 613.5118957 28.07672348 613.51604052 19.33829336 613.50255339 C14.89153858 613.49607995 10.44503091 613.49569936 5.99830055 613.51325989 C-32.58453047 613.65580527 -69.8291029 609.59047837 -100.5871582 584.00952148 C-101.50883789 583.25155273 -102.43051758 582.49358398 -103.38012695 581.71264648 C-124.84544543 563.18405 -135.82712952 538.02844489 -142.5871582 511.00952148 C-142.85689453 509.93927734 -142.85689453 509.93927734 -143.13208008 508.84741211 C-147.48982039 489.50040162 -146.8805526 469.44743935 -146.84860754 449.7441746 C-146.8440285 445.55525819 -146.85109348 441.36635758 -146.85656738 437.17744446 C-146.86540584 428.99823221 -146.86356425 420.81905692 -146.8577421 412.63984329 C-146.85320329 405.98479622 -146.85262224 399.32975941 -146.85478973 392.67471123 C-146.8550962 391.72320922 -146.85540267 390.77170721 -146.85571842 389.7913718 C-146.85635795 387.85768084 -146.85700638 385.92398988 -146.8576636 383.99029892 C-146.86335072 365.9076912 -146.85683466 347.82510384 -146.84606287 329.74249946 C-146.83713029 314.26907799 -146.83868015 298.79568655 -146.84790039 283.32226562 C-146.85863422 265.30063062 -146.86280004 247.27901341 -146.85667586 229.25737566 C-146.85603885 227.33096628 -146.8554101 225.40455689 -146.85478973 223.47814751 C-146.85448118 222.53062006 -146.85417263 221.58309262 -146.85385473 220.60685222 C-146.852137 213.97000934 -146.85502291 207.33317786 -146.85974884 200.69633675 C-146.86539246 192.59355638 -146.86376882 184.49081471 -146.85318735 176.3880387 C-146.84797683 172.26385884 -146.84579367 168.13974317 -146.85248566 164.01556396 C-146.91684127 120.6030012 -143.86238418 75.56750093 -112.6027832 42.18139648 C-110.44156049 39.91475968 -110.44156049 39.91475968 -108.1496582 36.88452148 C-81.1974102 6.64541397 -38.07655773 0.64939587 0 0 Z " fill="#2E3D61" transform="translate(348.587158203125,204.990478515625)"/>
<path d="M0 0 C99.33 0 198.66 0 301 0 C302.23513945 16.05681288 303.45693273 32.0976409 304.43261719 48.17016602 C304.62611118 51.33064968 304.8286883 54.49047679 305.03125 57.65039062 C305.84704353 70.79657137 306.12638485 83.8272517 306 97 C299.73 97 293.46 97 287 97 C286.1646875 93.720625 286.1646875 93.720625 285.3125 90.375 C279.84598989 69.68423661 271.60499169 46.68511056 252.31054688 34.97460938 C243.63702368 30.18954272 234.7940716 27.5451812 225 26 C223.41239868 25.74657837 223.41239868 25.74657837 221.79272461 25.48803711 C217.88665044 24.9854145 214.02904406 24.77941225 210.09765625 24.68359375 C209.3750914 24.66281265 208.65252655 24.64203156 207.9080658 24.62062073 C205.6262963 24.55584574 203.34442333 24.4965797 201.0625 24.4375 C199.50454709 24.39424603 197.9466042 24.35062969 196.38867188 24.30664062 C192.59255078 24.20023961 188.79632686 24.09877501 185 24 C184.99020501 57.68264974 185.0119606 91.36511189 185.07579029 125.04769994 C185.08330597 129.02789331 185.09056153 133.00808711 185.09765625 136.98828125 C185.099073 137.78063705 185.10048975 138.57299286 185.10194944 139.38935944 C185.12424331 152.20439682 185.12548398 165.01935362 185.11888863 177.83440498 C185.11258751 190.99240062 185.12903996 204.1502273 185.16643608 217.30817199 C185.18878372 225.42170222 185.19356822 233.53484692 185.17559664 241.64838967 C185.16370095 247.87908008 185.183525 254.10930989 185.21495247 260.33992386 C185.22290171 262.889163 185.22069212 265.43845788 185.20739174 267.98767471 C184.64087367 287.47050006 184.64087367 287.47050006 193.85342598 303.95520401 C199.14671056 308.73969239 206.24988414 310.25889869 213 312 C213.64066406 312.17418457 214.28132812 312.34836914 214.94140625 312.52783203 C218.32963268 313.3049703 221.78881847 313.37575816 225.25 313.5625 C227.8075 313.706875 230.365 313.85125 233 314 C233 320.93 233 327.86 233 335 C178.55 335 124.1 335 68 335 C68 328.07 68 321.14 68 314 C70.990625 313.773125 73.98125 313.54625 77.0625 313.3125 C88.80998236 312.23764238 100.14389941 310.33589984 109 302 C114.87950573 293.87439095 115.29734512 283.65940597 115.2784729 274.00914001 C115.2842653 272.93564303 115.2900577 271.86214604 115.29602563 270.75611883 C115.31296262 267.17714403 115.31589674 263.59829868 115.31884766 260.01928711 C115.32815016 257.44656053 115.33831932 254.87383696 115.34928894 252.30111694 C115.371503 246.77151469 115.38655137 241.24193076 115.39665604 235.71229362 C115.41127594 227.71749132 115.43682193 219.72275289 115.46498732 211.72798819 C115.51039531 198.75528057 115.54703482 185.78256371 115.578125 172.80981445 C115.60833514 160.21214174 115.64269669 147.61449155 115.68261719 135.0168457 C115.68507874 134.23960437 115.68754028 133.46236303 115.69007643 132.66156893 C115.70245151 128.76216183 115.71490795 124.86275499 115.72740483 120.96334827 C115.83088284 88.6422628 115.92011564 56.3211527 116 24 C110.98652534 24.06979226 105.9738137 24.15817497 100.9609375 24.26245117 C99.26213178 24.29533025 97.5632265 24.32347205 95.86425781 24.34643555 C75.30840737 24.6315964 54.86686588 27.8683836 39.265625 42.578125 C34.16275035 47.98294489 30.1856752 53.30801346 27 60 C26.45859375 61.02996094 25.9171875 62.05992187 25.359375 63.12109375 C19.89560284 73.96549371 16.92423012 85.2495222 14 97 C8.06 97 2.12 97 -4 97 C-4.18423079 81.15615171 -3.45298358 65.44114411 -2.5625 49.625 C-2.35769765 45.90300338 -2.15436458 42.18092908 -1.95140076 38.45883179 C-1.82590437 36.16661978 -1.69914735 33.87447618 -1.57069397 31.58242798 C-0.98513472 21.05691073 -0.50148978 10.53128544 0 0 Z " fill="#FCFDFD" transform="translate(361,342)"/>
<path d="M0 0 C14.10987986 -0.07059652 28.21973169 -0.1230324 42.32975292 -0.15543652 C48.88371655 -0.17099974 55.43756037 -0.19206455 61.99145508 -0.22631836 C68.33277351 -0.25924846 74.67397771 -0.27692298 81.01537514 -0.28463173 C83.4179088 -0.2901155 85.82043721 -0.30082101 88.22292137 -0.31719017 C128.77439805 -0.58214519 167.22915902 7.68561143 197 37 C223.0743956 63.0293621 234.35189483 100.59828175 234.4642601 136.77392769 C234.45295731 140.1802272 234.42223712 143.58602131 234.390625 146.9921875 C234.38314071 149.40454635 234.37745817 151.81691139 234.37347412 154.22927856 C234.35838986 160.49932412 234.31926163 166.76898366 234.2746582 173.03887939 C234.23332876 179.46857485 234.21538362 185.89833426 234.1953125 192.328125 C234.15274647 204.88558387 234.08471059 217.44275952 234 230 C232.88842125 229.0550036 231.77795628 228.10869701 230.66795349 227.16184998 C230.04944236 226.63501838 229.43093122 226.10818678 228.79367733 225.56539059 C226.34726202 223.43033796 224.06481463 221.15902243 221.78515625 218.84765625 C221.0960038 218.15282387 221.0960038 218.15282387 220.39292908 217.44395447 C218.46416027 215.49913834 216.54151265 213.5483152 214.6184082 211.59790039 C213.19700626 210.1581422 211.77239412 208.72161228 210.34765625 207.28515625 C209.09480835 206.01490601 209.09480835 206.01490601 207.81665039 204.71899414 C205.67251896 202.64920202 203.51404841 200.69748743 201.25756836 198.75756836 C196.45592172 194.59151204 192.00208995 190.10926582 187.53125 185.59375 C186.65150513 184.71021851 185.77176025 183.82668701 184.86535645 182.91638184 C181.60343055 179.6402768 178.34607436 176.3596502 175.08905029 173.07867432 C171.8851274 169.85169462 168.67730884 166.6286192 165.46875 163.40625 C164.63831177 162.56751343 163.80787354 161.72877686 162.95227051 160.86462402 C159.40889396 157.3065141 155.85848079 153.81941298 152.04760742 150.54760742 C147.03224009 146.23394478 142.42345027 141.52860189 137.76953125 136.83203125 C136.80674961 135.86483165 135.84366487 134.89793368 134.8802948 133.93132019 C131.85483805 130.89455033 128.83337693 127.85382483 125.8125 124.8125 C122.29715918 121.27345492 118.78014381 117.73610665 115.25888634 114.20294762 C113.86044146 112.7980721 112.46507681 111.39013259 111.06977844 109.98213196 C110.21506454 109.12411484 109.36035065 108.26609772 108.47973633 107.38208008 C107.36010246 106.25459099 107.36010246 106.25459099 106.21784973 105.10432434 C103.91331974 102.91775666 101.49985254 100.95814562 99 99 C97.1875 97.375 97.1875 97.375 96 96 C96 95.34 96 94.68 96 94 C95.45087952 93.7765239 94.90175903 93.55304779 94.33599854 93.32279968 C91.29990698 91.60356019 89.0479157 89.30267496 86.62402344 86.83520508 C86.09984329 86.30971069 85.57566315 85.78421631 85.03559875 85.24279785 C83.30554639 83.50626133 81.58258359 81.76285688 79.859375 80.01953125 C78.65165557 78.80553579 77.44341579 77.59205779 76.23468018 76.3790741 C73.05076847 73.18185992 69.87246094 69.97913727 66.69573975 66.77478027 C61.62713593 61.66308879 56.55194219 56.55796465 51.47327423 51.45627403 C49.70952537 49.68239781 47.9492885 47.90509288 46.18939209 46.12739563 C41.19354812 41.09426911 36.17799295 36.15253213 30.77813721 31.54759216 C27.6712088 28.84349372 24.78132929 25.92406184 21.875 23.0078125 C20.92645142 22.06069901 20.92645142 22.06069901 19.95874023 21.0944519 C18.6400487 19.77643434 17.32259275 18.45717946 16.00634766 17.13671875 C13.98063898 15.10558715 11.94955941 13.07993401 9.91796875 11.0546875 C8.63249118 9.76855024 7.34732325 8.48210341 6.0625 7.1953125 C5.45325684 6.58809357 4.84401367 5.98087463 4.21630859 5.35525513 C0 1.11499023 0 1.11499023 0 0 Z " fill="#FAA836" transform="translate(588,206)"/>
<path d="M0 0 C33.66 0 67.32 0 102 0 C99.46099124 2.53900876 97.85595778 2.2395896 94.39346313 2.25994873 C93.61062958 2.25432922 92.82779602 2.24870972 92.02124023 2.24291992 C91.19659775 2.24481827 90.37195526 2.24671661 89.52232361 2.24867249 C86.78431818 2.25238949 84.04657581 2.24165679 81.30859375 2.23046875 C79.40487194 2.22927656 77.50114953 2.22882387 75.59742737 2.2290802 C71.5983616 2.22751335 67.59938509 2.2192131 63.6003418 2.20581055 C58.49173011 2.18890098 53.38321734 2.1849939 48.27458096 2.18575573 C44.33760139 2.18548264 40.40064316 2.17997784 36.46367073 2.17275429 C34.58154525 2.16958569 32.69941736 2.16760447 30.81728935 2.16686058 C28.1729924 2.16467313 25.52879643 2.15587545 22.88452148 2.14526367 C22.11585754 2.14571686 21.3471936 2.14617004 20.55523682 2.14663696 C15.3061322 2.116099 10.20977353 1.64835756 5 1 C5.66 2.98 6.32 4.96 7 7 C5.83040013 6.02433888 4.66438823 5.044375 3.5 4.0625 C2.8503125 3.51722656 2.200625 2.97195312 1.53125 2.41015625 C1.0259375 1.94480469 0.520625 1.47945312 0 1 C0 0.67 0 0.34 0 0 Z " fill="#F5821C" transform="translate(588,206)"/>
<path d="M0 0 C10.23 0 20.46 0 31 0 C31 0.33 31 0.66 31 1 C13.14350797 2.33257403 13.14350797 2.33257403 5 1 C5.66 2.98 6.32 4.96 7 7 C5.83040013 6.02433888 4.66438823 5.044375 3.5 4.0625 C2.8503125 3.51722656 2.200625 2.97195312 1.53125 2.41015625 C1.0259375 1.94480469 0.520625 1.47945312 0 1 C0 0.67 0 0.34 0 0 Z " fill="#F2731C" transform="translate(588,206)"/>
<path d="M0 0 C0.66 0.33 1.32 0.66 2 1 C-0.31 3.31 -2.62 5.62 -5 8 C-5.33 7.01 -5.66 6.02 -6 5 C-4.02 3.35 -2.04 1.7 0 0 Z " fill="#415171" transform="translate(245,238)"/>
<path d="M0 0 C3.53600465 1.91135386 5.78972846 3.62642766 8 7 C5 7 5 7 3.3125 5.625 C2 4 2 4 2 2 C1.34 2 0.68 2 0 2 C0 1.34 0 0.68 0 0 Z " fill="#3D4456" transform="translate(741,358)"/>
</svg>
